<?xml version="1.0" encoding="UTF-8"?>
<svg id="Layer_1" data-name="Layer 1" xmlns="http://www.w3.org/2000/svg" xmlns:xlink="http://www.w3.org/1999/xlink" viewBox="0 0 431.41 706.94">
  <defs>
    <style>
      .cls-1 {
        fill: #0071b9;
      }

      .cls-2 {
        letter-spacing: -.04em;
      }

      .cls-3 {
        letter-spacing: 0em;
      }

      .cls-4 {
        letter-spacing: -.06em;
      }

      .cls-5 {
        letter-spacing: 0em;
      }

      .cls-6 {
        fill: #ed2024;
      }

      .cls-7 {
        stroke-linejoin: round;
      }

      .cls-7, .cls-8, .cls-9 {
        fill: none;
      }

      .cls-7, .cls-9 {
        stroke: #000;
        stroke-width: 3px;
      }

      .cls-10 {
        fill: #f7ed38;
      }

      .cls-11 {
        letter-spacing: 0em;
      }

      .cls-12 {
        fill: #6abd45;
      }

      .cls-13 {
        font-size: 14.61px;
      }

      .cls-13, .cls-14 {
        fill: #231f20;
        font-family: MyriadPro-Regular, 'Myriad Pro';
      }

      .cls-15 {
        letter-spacing: -.01em;
      }

      .cls-16 {
        letter-spacing: .02em;
      }

      .cls-17 {
        fill: #ababab;
      }

      .cls-18 {
        clip-path: url(#clippath-1);
      }

      .cls-19 {
        letter-spacing: -.03em;
      }

      .cls-20 {
        fill: #4d4d4e;
      }

      .cls-21 {
        letter-spacing: 0em;
      }

      .cls-22 {
        letter-spacing: 0em;
      }

      .cls-23 {
        letter-spacing: 0em;
      }

      .cls-24 {
        letter-spacing: 0em;
      }

      .cls-25 {
        letter-spacing: 0em;
      }

      .cls-26 {
        letter-spacing: .02em;
      }

      .cls-27 {
        letter-spacing: 0em;
      }

      .cls-28 {
        letter-spacing: .02em;
      }

      .cls-29 {
        fill: #fbcccc;
      }

      .cls-14 {
        font-size: 15.16px;
      }

      .cls-30 {
        letter-spacing: .01em;
      }

      .cls-31 {
        letter-spacing: 0em;
      }

      .cls-32 {
        fill: #0099cd;
      }

      .cls-33 {
        letter-spacing: 0em;
      }

      .cls-9 {
        stroke-miterlimit: 10;
      }

      .cls-34 {
        letter-spacing: 0em;
      }

      .cls-35 {
        fill: #f8991d;
      }

      .cls-36 {
        letter-spacing: -.01em;
      }

      .cls-37 {
        letter-spacing: 0em;
      }

      .cls-38 {
        clip-path: url(#clippath);
      }

      .cls-39 {
        letter-spacing: -.03em;
      }

      .cls-40 {
        letter-spacing: 0em;
      }
    </style>
    <clipPath id="clippath">
      <rect class="cls-8" x="284.62" y="43.5" width="124.1" height="75.03"/>
    </clipPath>
    <clipPath id="clippath-1">
      <rect class="cls-8" x="284.62" y="43.5" width="124.1" height="75.03"/>
    </clipPath>
  </defs>
  <g class="cls-38">
    <g class="cls-18">
      <path class="cls-17" d="M285.62,87.2c-.15,0-.28.13-.28.29s.13.29.28.29h118.79c.15,0,.29-.13.29-.29s-.13-.29-.29-.29h-118.79Z"/>
      <path class="cls-1" d="M285.68,44.19c-.11,0-.13.42-.03.44.01,0,.02,0,.02,0,1.06.19,1.72.26,2.36.67.66.42.6.76.6,1.72v29.64c0,.96.05,1.31-.61,1.73-.64.41-1.3.48-2.36.67h-.02c-.11.03-.09.44.02.44h23.12c9.75,0,13.85-4.01,13.85-10.28,0-4.62-2.09-7.45-6.19-8.52-.07-.02-.08-.11,0-.14,2.62-.85,5.03-2.82,5.03-7.63,0-6.54-4.26-8.75-13.54-8.75h-22.26s0,0,0,0ZM339.32,44.19h-16.7c-.1,0-.09.4,0,.43,0,0,.02,0,.02,0,.71.08,1.1.03,1.93.45.1.05.33.21.42.29.53.47.86.89,1.51,1.88l11.77,18.09v11.33c0,.97.06,1.3-.6,1.73-.64.41-1.3.48-2.35.67,0,0-.02,0-.02,0-.11.03-.09.44.02.44h18.13c.1,0,.13-.41.03-.44-.01,0-.03,0-.03,0-1.05-.19-1.71-.25-2.36-.67-.66-.43-.61-.76-.61-1.73v-11.25l11.79-18.17c.65-.99,1.07-1.51,1.59-1.97.09-.08.31-.23.44-.32.49-.25.68-.32,1.27-.34,0,0,.01,0,.02,0,.11,0,.15-.43.02-.43h-15.9c-.13,0-.11.43,0,.44,0,0,.02,0,.02,0,.76,0,1.72,0,1.56,1.16-.09,1.11-4.68,7.99-6.3,10.6-.23.38-.42.76-.5,1.23-.05-.47-.34-.94-.52-1.22-2.28-3.52-6.17-9.22-6.28-10.62-.09-1.19.8-1.16,1.57-1.16,0,0,0,0,.02,0,.1,0,.15-.43.02-.43h0ZM391.03,44.19c-.1,0-.13.42-.01.44h.01c1.08.14,1.58.27,2.22.68.66.42.6.75.6,1.72v17.81c0,4.06-2.24,7.18-6.69,7.18s-6.71-3.13-6.71-7.18v-17.81c0-.96-.04-1.31.61-1.72.64-.41,1.18-.51,2.22-.67,0,0,0,0,.02,0,.11-.02.09-.43-.02-.43h-16.1c-.12,0-.09.41,0,.43.01,0,.03,0,.03,0,.59.04.99.08,1.34.4.54.46.63,1.03.63,1.99v17.51c0,8.44,4.44,15.61,17.97,15.61s17.95-7.17,17.95-15.61v-17.51c0-.96-.04-1.3.61-1.72.65-.41,1.3-.48,2.36-.67,0,0,.01,0,.02,0,.11-.02.09-.43-.02-.43h-17.05ZM299.42,50.78s.42.07.81.07h4.47c3.41,0,5.4.55,5.4,3.76,0,2.08-1.24,3.94-5.26,3.94h-4.61c-.4,0-.8.05-.8.05,0,0,.05-.4.05-.83v-6.15c0-.48-.07-.85-.07-.85M299.43,63.96s.4.06.8.06h3.79c3.02,0,6.7,0,6.7,4.33,0,3.21-2.64,4.34-6.2,4.34h-4.29c-.4,0-.79.06-.79.06,0,0,.04-.42.04-.83v-7.12c0-.48-.05-.83-.05-.83h0ZM395.48,95.3c-6.75,0-11.24,5.69-11.24,11.58,0,6.2,4.49,11.04,10.77,11.04,6.77,0,11.23-5.69,11.23-11.58,0-6.21-4.46-11.04-10.76-11.04M338.29,95.4c-.26,0-.53.06-.56.18-.83,2.67-1.92,5.66-2.94,8.53l-1.75,5c-2.38,6.75-2.97,7.22-3.31,7.5-.49.34-1.09.55-2.08.65-.17.05-.1.45,0,.45h6.77c.1,0,.13-.4,0-.45-1.42-.12-1.88-.44-1.88-1.05,0-.73.35-2.41,1.91-6.83h6.84c1.88,4.93,2.31,6.48,2.31,7.06,0,.52-.63.72-1.65.82-.13.05-.1.45,0,.45h7.24c.1,0,.13-.4,0-.45-.92-.1-1.42-.2-1.98-.57-.46-.31-.9-.82-3.47-7.57l-1.88-5c-1.15-3.12-2.01-5.56-3-8.53-.04-.12-.3-.18-.57-.18M285.59,95.51c-.1,0-.1.4.04.44,1.29.14,2.15.34,2.54.58.4.21.69.83.69,7.58v5c0,6.74-.29,7.33-.69,7.56-.39.25-1.26.46-2.54.59-.14.03-.14.45-.04.45h8.92c.1,0,.13-.42-.04-.45-1.28-.13-2.11-.34-2.51-.59-.43-.23-.73-.82-.73-7.56v-5c0-6.75.3-7.37.73-7.58.39-.24,1.22-.44,2.51-.58.17-.04.14-.44.04-.44h-8.92ZM301.98,95.51c-.1,0-.13.41.04.44,1.28.14,1.85.34,2.25.58.43.21.69.83.69,7.58v5c0,6.75-.26,7.33-.69,7.57-.4.24-.96.45-2.25.57-.17.05-.13.45-.04.45,1.45,0,2.97-.06,4.2-.06s3.57.06,5.02.06c4.23,0,6.74-1.02,9.01-3.39,1.98-2.09,3.14-5,3.14-7.98,0-6.21-4.79-10.83-11.43-10.83-1.49,0-4.53.07-5.75.07s-2.74-.07-4.2-.07M354.05,95.51c-.11,0-.13.41.03.44,1.29.14,1.85.34,2.25.58.43.21.7.83.7,7.58v5c0,6.75-.27,7.33-.7,7.57-.4.24-.96.45-2.25.57-.17.05-.14.45-.03.45h8.39c.1,0,.1-.4-.07-.45-1.29-.12-1.86-.34-2.25-.57-.39-.25-.68-.82-.68-7.57v-2.13h12.48v2.13c0,6.75-.29,7.33-.69,7.57-.39.24-.95.45-2.24.57-.17.05-.17.45-.03.45h8.36c.13,0,.13-.4-.03-.45-1.3-.12-1.85-.34-2.26-.57-.39-.25-.69-.82-.69-7.57v-5c0-6.75.3-7.37.69-7.58.41-.24.96-.44,2.26-.58.16-.03.16-.44.03-.44h-8.36c-.13,0-.14.41.03.44,1.29.14,1.85.34,2.24.58.4.21.69.83.69,7.58v1.6h-12.48v-1.6c0-6.75.29-7.37.68-7.58.39-.24.96-.44,2.25-.58.16-.03.17-.44.07-.44h-8.39ZM394.85,96.57c5.29,0,8.65,5.18,8.65,10.76,0,4.42-1.94,9.33-7.82,9.33-5.29,0-8.69-5.17-8.69-10.76,0-4.42,1.94-9.32,7.86-9.32M310.9,96.64c6.31,0,9.71,5.07,9.71,10.32,0,6.44-2.98,9.62-9.45,9.62-1.72,0-2.48-.24-3.07-.88-.43-.48-.72-2.19-.72-6.58v-5.11c0-5,.3-6.51.49-6.79.23-.3,1.06-.58,3.04-.58M337.85,99.72l2.94,8.25h-5.84l2.9-8.25Z"/>
    </g>
  </g>
  <polygon class="cls-6" points="117.79 480.27 117.79 477.84 129.96 477.84 129.96 463.63 89.79 463.63 89.79 477.84 92.36 477.84 92.36 485.47 83.33 486.49 84.14 494.22 117.85 490.41 117.45 486.62 118.34 486.62 118.34 481.71 114.73 481.71 114.73 480.27 117.79 480.27"/>
  <polygon class="cls-6" points="135.67 407.31 135.67 396.59 132.1 396.59 132.1 385.27 134.03 385.27 134.03 376.35 125.95 376.35 125.95 374.72 95.6 374.72 95.6 388.86 109.71 388.86 109.71 413.42 99.38 413.42 99.38 430.51 128.12 430.51 131.6 430.51 135.67 430.51 135.67 413.42 131.6 413.42 131.6 415.56 130.84 415.56 130.84 412.59 135.67 412.59 135.67 408.2 130.84 408.2 128.12 408.2 126.54 408.2 126.54 407.31 135.67 407.31"/>
  <path class="cls-6" d="M200.09,442.68v-4.4h.83v-4.36h-3.24v-.39h6.16v-3.02h-6.16v-.86h2.74v-3.62h-1.75v-25.64h-4.63c1.33-1.2,2.19-2.95,2.19-4.92,0-3.61-2.82-6.54-6.31-6.54s-6.31,2.93-6.31,6.54c0,1.97.86,3.72,2.19,4.92h-.04v2.23h-5.39v-11.05h-15.3v31.11h1.71v11.59h-1.71v17.33h.91v14.51h4.93v-8.77h6.94v-5.74h3.12v-17.33h-.6v-11.59h5.39v3.36h-3.57v12.25h.58v4.4h-.58v15.36h22.37v-15.36h-4.49Z"/>
  <polygon class="cls-6" points="285.95 461.27 285.95 443.79 277.31 443.79 277.31 461.27 263.94 461.27 263.94 465.54 262.16 465.54 262.16 458.67 238.54 458.67 238.54 464.98 234.25 464.98 234.25 474.73 238.54 474.73 238.54 472.41 262.16 472.41 263.34 472.41 263.34 476.4 272.54 476.4 272.54 472.41 277.77 472.41 277.77 476.4 286.94 476.4 286.94 472.41 286.94 461.27 285.95 461.27"/>
  <polygon class="cls-6" points="335.06 384.34 335.06 380.82 332.87 380.82 332.87 379.58 328.84 379.58 328.84 376.28 321.35 376.28 321.35 379.58 316.89 379.58 316.89 380.82 314.21 380.82 314.21 384.34 311.88 384.34 311.88 393.8 309.69 393.8 309.69 401.57 311.88 401.57 311.88 412.13 314.21 412.13 314.21 415.28 316.89 415.28 316.89 417.55 321.35 417.55 321.35 419.68 328.84 419.68 328.84 417.55 332.87 417.55 332.87 415.28 335.06 415.28 335.06 412.13 337.88 412.13 337.88 401.57 337.88 393.8 337.88 384.34 335.06 384.34"/>
  <rect class="cls-6" x="240.39" y="293.36" width="20.2" height="54.95"/>
  <polygon class="cls-6" points="222.8 330.89 222.8 319.83 220.69 319.83 220.69 317.49 218.72 317.49 218.72 315.01 215.47 315.01 215.47 312.67 213.43 312.67 213.43 310.62 211.04 310.62 211.04 309.45 203.25 309.45 203.25 310.62 201.25 310.62 201.25 312.67 199.21 312.67 199.21 315.01 196.25 315.01 196.25 317.49 193.26 317.49 193.26 319.83 190.72 319.83 190.72 330.89 184.83 330.89 184.83 344.56 198.57 344.56 198.57 348.31 215.2 348.31 215.2 344.56 229.93 344.56 229.93 330.89 222.8 330.89"/>
  <polygon class="cls-12" points="237.68 243.46 229.93 243.46 229.93 240.53 245.17 240.53 245.17 230.18 244.17 230.18 244.17 214.3 165.08 214.3 165.08 230.18 168.31 230.18 168.31 233.97 165.08 233.97 165.08 240.53 168.31 240.53 168.31 260.55 223.21 260.55 223.21 254.68 229.93 254.68 229.93 256.75 237.68 256.75 250.49 256.75 250.49 243.46 237.68 243.46"/>
  <polygon class="cls-32" points="134.38 206.36 134.38 202.57 106.64 202.57 106.64 200.15 95.6 200.15 95.6 196.7 89.06 196.7 89.06 200.15 71.48 200.15 67.5 207 67.5 202.57 44.88 202.57 44.88 226.03 49.2 226.03 49.2 249.5 52.2 249.5 52.2 253.99 56.9 253.99 64.83 268.24 71.48 268.24 106.64 268.24 106.64 260.55 134.38 260.55 140.37 260.55 140.37 206.36 134.38 206.36"/>
  <polygon class="cls-10" points="126.54 155.73 126.54 153.63 101.83 153.63 101.83 147.66 59.17 147.66 59.17 153.63 39.54 153.63 39.54 181.72 44.88 181.72 44.88 189.8 64.59 189.8 64.59 187.34 78.13 187.34 78.13 185.76 85.58 185.76 85.58 184.53 92.62 184.53 92.62 181.72 95.56 181.72 95.56 185.76 126.54 185.76 126.54 187.34 135.67 187.34 135.67 155.73 126.54 155.73"/>
  <polygon class="cls-35" points="215.23 158.89 215.23 155.03 204.58 155.03 204.58 158.89 192.89 158.89 192.89 168.73 187.81 168.73 187.81 161 166.49 161 166.49 196.7 187.81 196.7 187.81 173.99 192.89 173.99 192.89 175.4 227.42 175.4 227.42 158.89 215.23 158.89"/>
  <rect class="cls-6" x="244.35" y="172.24" width="16.24" height="33.71"/>
  <polygon class="cls-6" points="247.73 103.76 232.33 103.76 231.82 103.76 224.71 103.76 224.71 116.05 231.82 116.05 231.82 118.86 224.71 118.86 224.71 126.76 231.82 126.76 231.82 145.2 247.73 145.2 247.73 111.49 255.52 111.49 255.52 103.76 247.73 103.76"/>
  <rect class="cls-6" x="160.39" y="108.68" width="29.45" height="33.71"/>
  <polygon class="cls-6" points="220.63 79.58 215.18 79.58 215.18 76.75 204.27 76.75 204.27 79.58 198.13 79.58 198.13 94.9 204.27 94.9 204.27 97.15 215.18 97.15 215.18 94.9 220.63 94.9 220.63 79.58"/>
  <polygon class="cls-6" points="186.54 58.08 186.54 36.38 163.84 36.38 163.84 45.61 143.14 45.61 143.14 47.23 131.57 47.23 131.57 49.54 130.68 49.54 128.9 49.54 127.34 49.54 127.34 65.01 128.9 65.01 128.9 69.74 126 69.74 126 83.02 128.9 83.02 128.9 89.94 145.14 89.94 145.14 65.01 153.82 65.01 153.82 87.4 175.12 87.4 175.12 62.93 172.52 62.93 172.52 58.08 186.54 58.08"/>
  <polyline class="cls-7" points="276.2 287.7 276.2 362.56 240.39 362.56 240.39 362.12 228.02 355.94 187.88 356.66 167.66 360.02 147.9 360.02 147.9 449.55 22.6 449.55 22.6 360.02 147.9 360.02 147.9 289.27 147.9 676.75 22.6 677.78 406.84 677.78"/>
  <line class="cls-9" x1="281.5" y1="282.49" x2="406.84" y2="282.49"/>
  <polyline class="cls-9" points="22.6 676.75 22.6 24.52 274.07 24.52 274.07 150.8 406.84 150.8 406.84 676.75 406.84 209.73 276.2 209.73 276.2 275.78"/>
  <ellipse class="cls-9" cx="147.58" cy="283.03" rx="6.99" ry="7.25"/>
  <ellipse class="cls-9" cx="276.2" cy="282.49" rx="6.99" ry="7.25"/>
  <text class="cls-14" transform="translate(74.33 173.18) scale(.96 1)"><tspan x="0" y="0">Ha</tspan><tspan class="cls-16" x="17.19" y="0">r</tspan><tspan x="22.51" y="0">t</tspan></text>
  <g>
    <path d="M77.21,218.63c.56-.12,1.43-.21,2.32-.21,1.27,0,2.09.23,2.7.74.51.39.82,1,.82,1.8,0,.99-.63,1.85-1.67,2.24v.03c.94.24,2.03,1.05,2.03,2.56,0,.88-.34,1.55-.83,2.05-.69.65-1.8.96-3.41.96-.88,0-1.55-.06-1.97-.12v-10.06ZM78.48,222.82h1.15c1.34,0,2.13-.73,2.13-1.71,0-1.2-.88-1.67-2.16-1.67-.58,0-.92.05-1.13.09v3.29ZM78.48,227.72c.25.05.61.06,1.07.06,1.32,0,2.53-.5,2.53-1.99,0-1.4-1.15-1.97-2.54-1.97h-1.05v3.9Z"/>
    <path d="M87.1,228.72v-4.34l-3.11-5.88h1.45l1.39,2.82c.38.77.67,1.4.98,2.11h.03c.28-.67.61-1.33.99-2.11l1.42-2.82h1.45l-3.3,5.87v4.35h-1.29Z"/>
    <path d="M94.09,218.5v6.05c0,2.29.98,3.26,2.29,3.26,1.46,0,2.4-1,2.4-3.26v-6.05h1.29v5.96c0,3.14-1.59,4.43-3.73,4.43-2.02,0-3.54-1.2-3.54-4.37v-6.02h1.29Z"/>
    <path d="M105.21,224.12v.99h-3.61v-.99h3.61Z"/>
    <path d="M108.03,218.5v10.22h-1.27v-10.22h1.27Z"/>
    <path d="M80.35,249.23c-.47.24-1.4.49-2.6.49-2.78,0-4.87-1.82-4.87-5.17s2.09-5.37,5.15-5.37c1.23,0,2,.27,2.34.46l-.31,1.08c-.48-.24-1.17-.42-1.99-.42-2.31,0-3.84,1.53-3.84,4.22,0,2.5,1.39,4.11,3.79,4.11.77,0,1.56-.17,2.08-.42l.26,1.05Z"/>
    <path d="M82.45,246.14c.03,1.8,1.14,2.55,2.43,2.55.92,0,1.48-.17,1.96-.38l.22.96c-.45.21-1.23.46-2.35.46-2.18,0-3.48-1.49-3.48-3.7s1.26-3.96,3.32-3.96c2.31,0,2.92,2.11,2.92,3.46,0,.27-.03.49-.04.62h-4.97ZM86.22,245.18c.01-.85-.34-2.17-1.78-2.17-1.3,0-1.87,1.24-1.97,2.17h3.76Z"/>
    <path d="M89.05,244.21c0-.76-.01-1.38-.06-1.99h1.14l.07,1.21h.03c.35-.7,1.17-1.38,2.34-1.38.98,0,2.5.61,2.5,3.12v4.38h-1.29v-4.23c0-1.18-.42-2.17-1.64-2.17-.85,0-1.51.62-1.72,1.36-.06.17-.09.39-.09.62v4.41h-1.29v-5.35Z"/>
    <path d="M98.66,240.11v2.11h1.84v1.02h-1.84v3.96c0,.91.25,1.43.96,1.43.34,0,.58-.05.75-.09l.06,1c-.25.11-.64.18-1.14.18-.6,0-1.08-.2-1.39-.56-.37-.39-.5-1.05-.5-1.91v-4h-1.1v-1.02h1.1v-1.76l1.26-.35Z"/>
    <path d="M102.57,246.14c.03,1.8,1.14,2.55,2.43,2.55.92,0,1.48-.17,1.96-.38l.22.96c-.45.21-1.23.46-2.35.46-2.18,0-3.48-1.49-3.48-3.7s1.26-3.96,3.32-3.96c2.31,0,2.92,2.11,2.92,3.46,0,.27-.03.49-.04.62h-4.97ZM106.34,245.18c.01-.85-.34-2.17-1.78-2.17-1.3,0-1.87,1.24-1.97,2.17h3.76Z"/>
    <path d="M109.18,244.51c0-.86-.01-1.61-.06-2.29h1.13l.04,1.44h.06c.32-.99,1.1-1.61,1.96-1.61.15,0,.25.02.37.05v1.26c-.13-.03-.26-.05-.44-.05-.91,0-1.55.71-1.72,1.71-.03.18-.06.39-.06.62v3.91h-1.27v-5.05Z"/>
  </g>
  <text class="cls-14" transform="translate(197.67 241.87) scale(.96 1)"><tspan x="0" y="0">MC</tspan></text>
  <text class="cls-14" transform="translate(139.27 67.61) scale(.96 1)"><tspan x="0" y="0">Sn</tspan><tspan class="cls-3" x="15.89" y="0">o</tspan><tspan x="24.1" y="0">w</tspan></text>
  <text class="cls-14" transform="translate(193.48 91.4) scale(.96 1)"><tspan x="0" y="0">Spo</tspan><tspan class="cls-27" x="24.42" y="0">r</tspan><tspan x="29.44" y="0">i</tspan></text>
  <text class="cls-14" transform="translate(149.89 129.99) scale(.96 1)"><tspan class="cls-27" x="0" y="0">R</tspan><tspan class="cls-23" x="8.22" y="0">omney</tspan></text>
  <text class="cls-14" transform="translate(176.78 180.32) scale(.96 1)"><tspan class="cls-31" x="0" y="0">M</tspan><tspan x="12.28" y="0">c</tspan><tspan class="cls-26" x="19.07" y="0">K</tspan><tspan class="cls-37" x="27.53" y="0">a</tspan><tspan class="cls-23" x="34.72" y="0">y</tspan></text>
  <text class="cls-14" transform="translate(221.12 128.93) scale(.96 1)"><tspan x="0" y="0">Cla</tspan><tspan class="cls-5" x="19.68" y="0">r</tspan><tspan x="24.69" y="0">ke</tspan></text>
  <text class="cls-14" transform="translate(234.59 193.54) scale(.96 1)"><tspan x="0" y="0">Smith</tspan></text>
  <text class="cls-14" transform="translate(189.19 333.33) scale(.96 1)"><tspan class="cls-4" x="0" y="0">T</tspan><tspan class="cls-40" x="6.56" y="0">a</tspan><tspan x="13.75" y="0">ylor</tspan></text>
  <text class="cls-14" transform="translate(227.52 325.29) scale(.96 1)"><tspan class="cls-30" x="0" y="0">K</tspan><tspan x="8.37" y="0">imball</tspan></text>
  <text class="cls-14" transform="translate(96.14 407.06) scale(.96 1)"><tspan class="cls-15" x="0" y="0">A</tspan><tspan x="9.1" y="0">ustin</tspan></text>
  <text class="cls-14" transform="translate(95.37 483.38) scale(.96 1)"><tspan x="0" y="0">S</tspan><tspan class="cls-19" x="7.47" y="0">T</tspan><tspan class="cls-33" x="14.6" y="0">C</tspan></text>
  <text class="cls-14" transform="translate(245.28 464.54) scale(.96 1)"><tspan class="cls-30" x="0" y="0">R</tspan><tspan x="8.31" y="0">icks</tspan></text>
  <text class="cls-14" transform="translate(192.5 12.69) scale(.96 1)"><tspan x="0" y="0">E 2nd S</tspan></text>
  <text class="cls-14" transform="translate(191.61 703.15) scale(.96 1)"><tspan x="0" y="0">W 7th S</tspan></text>
  <text class="cls-13" transform="translate(427.75 501.98) rotate(-90) scale(1.04 1)"><tspan x="0" y="0">S 2nd E</tspan></text>
  <text class="cls-13" transform="translate(12.23 377.43) rotate(-90) scale(1.04 1)"><tspan x="0" y="0">S 1st</tspan><tspan class="cls-2" x="28.43" y="0"> </tspan><tspan x="31" y="0">W</tspan></text>
  <polyline class="cls-7" points="334.47 346.21 334.47 358.89 406.84 358.89"/>
  <rect class="cls-29" x="35.81" y="560.47" width="105.31" height="109.24"/>
  <rect class="cls-29" x="212.44" y="483.53" width="59.92" height="54.77"/>
  <path class="cls-29" d="M208.7,438.4c2.3,2.94,4.39,2.91,4.97,5.55.53,2.41-.95,3.68,0,5.55.57,1.12,1.92,1.69,4.59,2.78,3.48,1.42,5.22,2.13,6.5,1.59,2.25-.95,1.45-3.69,3.82-5.55,1.92-1.51,4.49-1.16,9.55-.4,5.23.79,5.56,1.68,9.55,1.98,1.74.13,5.09.36,8.79-.79,1.17-.37,3.51-1.22,8.79-5.55,8.43-6.91,8.7-9.83,13.38-11.1,4.18-1.14,5.29.83,8.03-.79,4.87-2.89,6.72-12.28,3.44-17.44-1.19-1.88-1.83-1.25-4.97-4.36-3.43-3.39-3.04-4.5-7.26-9.91-3.59-4.6-5.35-5.69-4.97-7.53.28-1.36,1.47-1.91,4.97-3.96,5.7-3.35,8.55-5.02,9.55-6.34,3.08-4.07,2.3-9.57,1.91-12.29-.32-2.28-.95-6.7-3.44-7.53-1.39-.46-2.85.36-5.73,1.98-2.91,1.64-3.08,2.41-4.97,3.17-2.48,1-3.75.28-6.88.4-4.55.16-4.6,1.78-9.94,2.78-1.81.34-5.03.22-11.47,0-4.96-.17-6.79-.43-8.79-1.59-1.27-.74-1.5-1.2-3.44-2.38-.8-.49-3.27-1.97-6.11-2.78-2.67-.76-6.99-1.99-11.08.4-3.95,2.3-5.17,6.48-5.35,7.14-1.11,4.03.21,7.37.76,8.72.51,1.24,1.75,2.83,4.2,5.95,1.93,2.45,3.79,4.65,6.11,7.93,2.4,3.39,2.51,3.99,2.29,4.36-.96,1.65-8.44-1.06-8.79-1.19-3.67-1.35-4.12-2.29-5.73-1.98-2.11.41-3.43,2.42-5.73,5.95-.95,1.45-1.9,2.92-2.68,5.15-1.02,2.91-1.13,5.35-1.15,6.34-.01.67,0,2.67,1.15,7.14.73,2.83,1.16,3.7,2.29,7.14,2.88,8.76,2.1,9.29,3.82,11.5Z"/>
  <path class="cls-29" d="M223.65,294.6c.9-.54,7.39-4.45,7.59-10.81.23-6.97-7.26-11.45-8.03-11.89-2.91-1.69-5.89-1.92-11.85-2.38-3.13-.24-6.21-.16-12.23,0-8.2.22-7.12.47-10.7.4-5.24-.1-7.39-.61-11.85,0-3.13.43-4.69.65-6.11,1.59-4.19,2.77-5.67,9.2-4.59,14.27.2.96,1.15,5.39,4.97,8.33,3.43,2.64,6.47,1.99,19.58,2.09,5.57.04,2.87.14,10.85.23,17.74.2,20.04-.42,22.36-1.82Z"/>
  <path class="cls-29" d="M82.57,30.7c-13.03,0-23.58,10.31-23.58,23.02v9.44h-14.11v35.66h14.11v9.59c0,12.72,10.56,23.02,23.58,23.02s23.58-10.31,23.58-23.02v-54.7c0-12.72-10.56-23.02-23.58-23.02Z"/>
  <text class="cls-14" transform="translate(221.24 412.55) scale(.96 1)"><tspan class="cls-22" x="0" y="0">G</tspan><tspan class="cls-21" x="9.91" y="0">a</tspan><tspan class="cls-36" x="17.22" y="0">r</tspan><tspan class="cls-34" x="22.03" y="0">dens</tspan></text>
  <text class="cls-14" transform="translate(50.04 85.52) scale(.96 1)"><tspan class="cls-24" x="0" y="0">S</tspan><tspan x="7.43" y="0">tadium</tspan></text>
  <text class="cls-14" transform="translate(181.68 287.36) scale(.96 1)"><tspan class="cls-11" x="0" y="0">Q</tspan><tspan x="10.49" y="0">uad</tspan></text>
  <text class="cls-14" transform="translate(217.76 515.36) scale(.96 1)"><tspan x="0" y="0">O</tspan><tspan class="cls-36" x="10.44" y="0">r</tspan><tspan x="15.25" y="0">cha</tspan><tspan class="cls-36" x="37.76" y="0">r</tspan><tspan x="42.57" y="0">d</tspan></text>
  <text class="cls-14" transform="translate(50.34 619.54) scale(.96 1)"><tspan x="0" y="0">Upper </tspan><tspan class="cls-39" x="42.83" y="0">F</tspan><tspan class="cls-33" x="49.81" y="0">ields</tspan></text>
  <polygon class="cls-20" points="121.25 94.4 121.25 30.7 108.03 30.7 108.03 133.34 121.25 133.34 135.67 133.34 135.67 94.4 121.25 94.4"/>
  <rect class="cls-20" x="31.15" y="101.44" width="25.57" height="31.9"/>
  <rect class="cls-20" x="31.15" y="30.7" width="25.57" height="26.53"/>
  <rect class="cls-20" x="307.92" y="436.85" width="20.75" height="72.13"/>
  <polygon class="cls-20" points="235.2 591.65 204.58 600.22 196.95 604.92 166.49 604.92 166.49 615.09 196.95 615.09 204.58 611.21 204.58 669.71 286.94 669.71 286.94 608.78 286.94 591.65 235.2 591.65"/>
  <rect class="cls-20" x="283.19" y="296.46" width="54.69" height="49.75"/>
  <rect class="cls-20" x="156.27" y="309.45" width="18.85" height="41.18"/>
  <rect class="cls-20" x="60.79" y="276.6" width="74.88" height="16.77"/>
  <rect class="cls-20" x="281.5" y="158.05" width="115.74" height="45.73"/>
  <polygon class="cls-20" points="391.72 434.16 391.72 395.46 387.11 385.76 371.26 371.78 341.82 395.46 341.82 500.4 346.75 500.4 358.53 540.7 380.37 540.7 389.47 540.7 398.58 526.92 398.58 515.54 398.58 460.09 391.72 434.16"/>
  <text class="cls-14" transform="translate(162.16 431.96) scale(.96 1)"><tspan class="cls-25" x="0" y="0">B</tspan><tspan x="8.28" y="0">enson</tspan></text>
  <text class="cls-14" transform="translate(300.8 402.43) scale(.96 1)"><tspan class="cls-30" x="0" y="0">H</tspan><tspan x="10.04" y="0">in</tspan><tspan class="cls-28" x="22" y="0">k</tspan><tspan x="29.36" y="0">ley</tspan></text>
</svg>